<?xml version="1.0" encoding="UTF-8"?>
<svg version="1.1" xmlns="http://www.w3.org/2000/svg" width="500" height="500">
<path d="M0 0 C7.41546023 6.69551263 12.38852814 16.39848406 16.15625 25.53125 C16.65930916 26.73976875 16.65930916 26.73976875 17.17253113 27.97270203 C21.38406739 38.29343149 24.9298834 48.85466789 28.50930786 59.40704346 C30.5806049 65.50757329 32.67869061 71.59889736 34.7734375 77.69140625 C35.1802626 78.87613525 35.58708771 80.06086426 36.00624084 81.28149414 C42.93716269 101.45357352 49.83004056 121.40376893 59.6706543 140.38745117 C60.4140625 142.1796875 60.4140625 142.1796875 60.4140625 145.1796875 C54.4740625 144.8496875 48.5340625 144.5196875 42.4140625 144.1796875 C37.3687611 133.7801887 33.09020588 123.34150927 29.22509766 112.45263672 C28.45154409 110.28473074 27.66096303 108.12397083 26.86328125 105.96484375 C26.40085056 104.70319503 25.93859921 103.44148056 25.4765625 102.1796875 C25.07566406 101.0865625 24.67476563 99.9934375 24.26171875 98.8671875 C23.4140625 96.1796875 23.4140625 96.1796875 23.4140625 93.1796875 C6.2540625 93.5096875 -10.9059375 93.8396875 -28.5859375 94.1796875 C-30.9165625 100.0165625 -33.2471875 105.8534375 -35.6484375 111.8671875 C-36.38843994 113.70112061 -37.12844238 115.53505371 -37.89086914 117.42456055 C-38.46862873 118.88810763 -39.04543492 120.3520316 -39.62109375 121.81640625 C-39.92849487 122.5681311 -40.235896 123.31985596 -40.5526123 124.09436035 C-42.67323764 129.53349109 -42.67323764 129.53349109 -41.5859375 135.1796875 C-39.54029612 136.85188912 -39.54029612 136.85188912 -37.0234375 137.9921875 C-36.19714844 138.41113281 -35.37085938 138.83007812 -34.51953125 139.26171875 C-33.88144531 139.56464844 -33.24335938 139.86757813 -32.5859375 140.1796875 C-35.03237946 143.06232162 -35.42339019 143.16556747 -39.5065918 143.52026367 C-41.14119025 143.51978917 -42.77583696 143.50286848 -44.41015625 143.47265625 C-45.27155716 143.46841141 -46.13295807 143.46416656 -47.02046204 143.45979309 C-49.77177181 143.44299998 -52.52234912 143.40534706 -55.2734375 143.3671875 C-57.1386613 143.35214146 -59.00389657 143.33845291 -60.86914062 143.32617188 C-65.44168848 143.29309443 -70.0136888 143.2413081 -74.5859375 143.1796875 C-74.9159375 141.8596875 -75.2459375 140.5396875 -75.5859375 139.1796875 C-74.94527344 139.03273438 -74.30460938 138.88578125 -73.64453125 138.734375 C-72.34708984 138.39792969 -72.34708984 138.39792969 -71.0234375 138.0546875 C-69.75306641 137.74144531 -69.75306641 137.74144531 -68.45703125 137.421875 C-59.4033101 133.50475483 -56.41238671 126.57534562 -52.7734375 117.8046875 C-52.26135742 116.61093506 -51.74927734 115.41718262 -51.22167969 114.18725586 C-49.65326294 110.52758643 -48.11954782 106.85407636 -46.5859375 103.1796875 C-45.6817655 101.0426403 -44.77685721 98.90590441 -43.87109375 96.76953125 C-40.78708457 89.45435185 -37.75095127 82.12210904 -34.82177734 74.7434082 C-29.95910955 62.49920794 -24.89298346 50.35437133 -19.7109375 38.2421875 C-18.57206806 35.57507709 -17.43383806 32.90769541 -16.29611206 30.24009705 C-15.59795051 28.60366039 -14.89904301 26.96754171 -14.19924927 25.33180237 C-13.58734631 23.89946491 -12.97750795 22.4662427 -12.37026978 21.03192139 C-11.70243485 19.45480093 -11.02683705 17.88097134 -10.34960938 16.30786133 C-9.34032166 13.49521394 -9.59732488 11.98226823 -10.5859375 9.1796875 C-15.97620685 2.73765828 -22.70021945 -0.61027577 -30.9609375 -1.6328125 C-35.46381305 -1.95488888 -39.27942313 -1.51616983 -43.61328125 -0.29296875 C-45.5859375 0.1796875 -45.5859375 0.1796875 -49.5859375 0.1796875 C-49.5859375 -1.1403125 -49.5859375 -2.4603125 -49.5859375 -3.8203125 C-30.93136115 -11.52140013 -16.74765436 -11.78913434 0 0 Z M-2.5859375 24.1796875 C-4.73655401 29.68907121 -6.88701783 35.19851449 -9.03735352 40.70800781 C-9.76550391 42.57358321 -10.49369262 44.43914365 -11.22192383 46.3046875 C-11.572146 47.201875 -11.92236816 48.0990625 -12.28320312 49.0234375 C-12.63345551 49.92064514 -12.98370789 50.81785278 -13.34457397 51.74224854 C-14.04949172 53.54882779 -14.75393955 55.35559047 -15.45791626 57.16253662 C-17.18854273 61.60427173 -18.92500747 66.04350996 -20.67529297 70.47753906 C-21.00230698 71.30927643 -21.32932098 72.14101379 -21.66624451 72.99795532 C-22.28352751 74.56769311 -22.90340776 76.1364128 -23.52626038 77.70394897 C-25.05168088 81.33176024 -25.05168088 81.33176024 -25.5859375 85.1796875 C-10.4059375 85.1796875 4.7740625 85.1796875 20.4140625 85.1796875 C11.42353292 54.16337572 11.42353292 54.16337572 -0.5859375 24.1796875 C-1.2459375 24.1796875 -1.9059375 24.1796875 -2.5859375 24.1796875 Z " fill="#AA9E8D" transform="translate(231.5859375,155.8203125)"/>
<path d="M0 0 C-0.125 1.75 -0.125 1.75 -1 4 C-2.43503708 4.9010698 -3.87093202 5.80082219 -5.3125 6.69140625 C-12.57380389 12.32227848 -15.19749862 21.76350822 -16.52684021 30.43774414 C-17.18221714 35.8366465 -17.13185655 41.21694636 -17.11352539 46.6484375 C-17.11367142 47.79077347 -17.11381744 48.93310944 -17.1139679 50.11006165 C-17.11327431 53.86506079 -17.1055079 57.62000958 -17.09765625 61.375 C-17.0957901 63.98673475 -17.09436713 66.59846985 -17.09336853 69.21020508 C-17.09026961 75.36878396 -17.08207575 81.52734493 -17.07201904 87.68591595 C-17.06081305 94.70168495 -17.05533618 101.71745485 -17.05032361 108.73323059 C-17.03989183 123.15549627 -17.02232044 137.57774788 -17 152 C-19.94213715 152.77813056 -22.51213844 153.13532271 -25.5625 153.125 C-26.32691406 153.12757813 -27.09132813 153.13015625 -27.87890625 153.1328125 C-30 153 -30 153 -33 152 C-33 134.51 -33 117.02 -33 99 C-45.375 99.495 -45.375 99.495 -58 100 C-59.65 99.34 -61.3 98.68 -63 98 C-63.33 95.69 -63.66 93.38 -64 91 C-53.77 91 -43.54 91 -33 91 C-33.03480469 85.75609375 -33.03480469 85.75609375 -33.0703125 80.40625 C-33.08597283 76.96728884 -33.09808112 73.52833186 -33.10986328 70.08935547 C-33.1198337 67.72507915 -33.13341489 65.36081487 -33.15087891 62.99658203 C-33.46225701 19.71502512 -33.46225701 19.71502512 -21.41015625 7.0546875 C-15.2342236 1.78962984 -8.13148286 -2.58729 0 0 Z " fill="#A89B89" transform="translate(344,148)"/>
<path d="M0 0 C6.93 0.495 6.93 0.495 14 1 C14 14.2 14 27.4 14 41 C9.05 41 4.1 41 -1 41 C-1.02464705 35.32169922 -1.04283462 29.64342931 -1.05493164 23.96508789 C-1.05997256 22.03181415 -1.06680519 20.09854424 -1.07543945 18.1652832 C-1.08751565 15.39273128 -1.09323057 12.62022959 -1.09765625 9.84765625 C-1.10281754 8.97786636 -1.10797882 8.10807648 -1.11329651 7.21192932 C-1.11349185 5.14094186 -1.06208168 3.07005676 -1 1 C-0.67 0.67 -0.34 0.34 0 0 Z " fill="#AFA493" transform="translate(224,259)"/>
<path d="M0 0 C0.66 0.33 1.32 0.66 2 1 C1 4 1 4 -1.6875 5.625 C-8.29690337 9.81942906 -11.40350878 17.06698566 -13.45703125 24.34765625 C-14.98330069 31.80331774 -15.13912026 39.06471969 -15.11352539 46.6484375 C-15.11367142 47.79077347 -15.11381744 48.93310944 -15.1139679 50.11006165 C-15.11327431 53.86506079 -15.1055079 57.62000958 -15.09765625 61.375 C-15.0957901 63.98673475 -15.09436713 66.59846985 -15.09336853 69.21020508 C-15.09026961 75.36878396 -15.08207575 81.52734493 -15.07201904 87.68591595 C-15.06081305 94.70168495 -15.05533618 101.71745485 -15.05032361 108.73323059 C-15.03989183 123.15549627 -15.02232044 137.57774788 -15 152 C-18.01903711 152.80489089 -20.61851889 153.10855119 -23.75 153.0625 C-24.54921875 153.05347656 -25.3484375 153.04445313 -26.171875 153.03515625 C-27.07679688 153.01775391 -27.07679688 153.01775391 -28 153 C-26.9375 151.5 -26.9375 151.5 -25 150 C-22.66744828 149.93961031 -20.33243573 149.93528502 -18 150 C-18.00276538 149.40991842 -18.00553076 148.81983685 -18.00837994 148.21187401 C-18.07488996 133.79483573 -18.12440152 119.37781123 -18.15543652 104.96065331 C-18.17084715 97.98836094 -18.19182427 91.01617154 -18.22631836 84.04394531 C-18.25963159 77.30714133 -18.27688641 70.57046605 -18.28463173 63.8335762 C-18.29014683 61.27174834 -18.30091601 58.70992588 -18.31719017 56.14814377 C-18.51210778 24.17481019 -18.51210778 24.17481019 -12 12 C-11.34 11.67 -10.68 11.34 -10 11 C-9.67 10.01 -9.34 9.02 -9 8 C-7.1875 6.46484375 -7.1875 6.46484375 -5 4.9375 C-1.98371816 2.92046147 -1.98371816 2.92046147 0 0 Z " fill="#C1BAAE" transform="translate(342,148)"/>
<path d="M0 0 C1.9375 0.125 1.9375 0.125 4 1 C5.25 3.5625 5.25 3.5625 6 6 C6.66 5.01 7.32 4.02 8 3 C8.66 3 9.32 3 10 3 C10 2.34 10 1.68 10 1 C11.32 1 12.64 1 14 1 C15.04976964 4.14930893 15.10131595 6.38814456 15.0625 9.6875 C15.05347656 10.68136719 15.04445312 11.67523438 15.03515625 12.69921875 C15.02355469 13.45847656 15.01195312 14.21773438 15 15 C12.50935112 15.68707555 10.62113708 16 8 16 C7.0409375 15.443125 7.0409375 15.443125 6.0625 14.875 C3.97761146 13.70751964 3.97761146 13.70751964 1.75 14.875 C0.88375 15.431875 0.88375 15.431875 0 16 C-2.27529157 10.78021347 -2.13953601 6.46747074 -1 1 C-0.67 0.67 -0.34 0.34 0 0 Z " fill="#C4BDB1" transform="translate(186,320)"/>
<path d="M0 0 C0.33 0.66 0.66 1.32 1 2 C11.23 2 21.46 2 32 2 C32 20.15 32 38.3 32 57 C31.34 57 30.68 57 30 57 C30 39.51 30 22.02 30 4 C17.625 4.495 17.625 4.495 5 5 C2.525 4.01 2.525 4.01 0 3 C0 2.01 0 1.02 0 0 Z " fill="#CEC6BB" transform="translate(281,243)"/>
<path d="M0 0 C0.66 0 1.32 0 2 0 C5.19164467 6.83923859 7.73226358 12.38445882 7 20 C5.39592672 20.02708567 3.7917215 20.04643483 2.1875 20.0625 C0.84751953 20.07990234 0.84751953 20.07990234 -0.51953125 20.09765625 C-3 20 -3 20 -6 19 C-5.64134677 11.58783319 -3.64079463 6.43520528 0 0 Z " fill="#A99D8C" transform="translate(229,211)"/>
<path d="M0 0 C2.9375 0.625 2.9375 0.625 5.3125 2.0625 C7.69923366 5.82619538 7.27137931 9.28456893 6.9375 13.625 C0.29613874 17.33180628 0.29613874 17.33180628 -4.0625 16.625 C-6.84047888 14.93836997 -7.11320961 13.4570244 -8.0625 10.3125 C-8.0625 6.66856656 -8.02322511 5.93284083 -6 3.1875 C-3.0625 0.625 -3.0625 0.625 0 0 Z M-0.0625 5.625 C-1.0525 6.615 -2.0425 7.605 -3.0625 8.625 C-2.7325 9.285 -2.4025 9.945 -2.0625 10.625 C-0.7425 10.625 0.5775 10.625 1.9375 10.625 C2.2675 9.635 2.5975 8.645 2.9375 7.625 C1.9475 6.965 0.9575 6.305 -0.0625 5.625 Z " fill="#C7C0B5" transform="translate(288.0625,319.375)"/>
<path d="M0 0 C17.82 0 35.64 0 54 0 C54.495 1.98 54.495 1.98 55 4 C55.66 4 56.32 4 57 4 C57 5.98 57 7.96 57 10 C57.66 10 58.32 10 59 10 C59.495 14.455 59.495 14.455 60 19 C58.0990238 16.1485357 57.03734101 13.70289524 55.875 10.5 C55.52179688 9.5409375 55.16859375 8.581875 54.8046875 7.59375 C54 5 54 5 54 2 C36.84 2.33 19.68 2.66 2 3 C-0.475 8.94 -0.475 8.94 -3 15 C-3.33 15 -3.66 15 -4 15 C-3.4660563 8.91304181 -2.5773452 6.01380547 0 0 Z " fill="#C6C0B3" transform="translate(201,247)"/>
<path d="M0 0 C1.32 0 2.64 0 4 0 C4 1.65 4 3.3 4 5 C4.99 4.67 5.98 4.34 7 4 C7.73323796 1.98491642 7.73323796 1.98491642 8 0 C9.65 0.33 11.3 0.66 13 1 C13.02696365 2.79158489 13.04637917 4.58328473 13.0625 6.375 C13.07410156 7.37273437 13.08570313 8.37046875 13.09765625 9.3984375 C13 12 13 12 12 14 C10.35 13.67 8.7 13.34 7 13 C7 12.34 7 11.68 7 11 C6.01 10.67 5.02 10.34 4 10 C3.67 11.65 3.34 13.3 3 15 C2.01 15 1.02 15 0 15 C-1.33257403 4.44191344 -1.33257403 4.44191344 0 0 Z " fill="#BEB6A9" transform="translate(256,321)"/>
<path d="M0 0 C0 4.62 0 9.24 0 14 C-3.3 14.33 -6.6 14.66 -10 15 C-10.61142213 9.9557674 -11.13050789 5.08980768 -11 0 C-7.18243176 -1.37432457 -3.92744671 -0.67975039 0 0 Z " fill="#C0B8AC" transform="translate(341,321)"/>
<path d="M0 0 C1.32 0 2.64 0 4 0 C4.45375 1.134375 4.9075 2.26875 5.375 3.4375 C6.57095806 7.04721692 6.57095806 7.04721692 9 8 C9 9.98 9 11.96 9 14 C5.98968256 14.93423645 5.13349732 15.04449911 2 14 C-0.00212229 14.32033957 -2.00239695 14.65259077 -4 15 C-4.33 14.67 -4.66 14.34 -5 14 C-4.65529893 8.25498208 -3.00426619 4.74867882 0 0 Z " fill="#BFB8AB" transform="translate(218,321)"/>
<path d="M0 0 C2.375 0.3125 2.375 0.3125 5 1 C7.00293347 4.00440021 7.49271626 5.70993945 8.125 9.1875 C8.29257813 10.08855469 8.46015625 10.98960937 8.6328125 11.91796875 C8.75398437 12.60503906 8.87515625 13.29210937 9 14 C8.01 14.33 7.02 14.66 6 15 C5.01 14.34 4.02 13.68 3 13 C2.01 13.66 1.02 14.32 0 15 C-2.6875 14.625 -2.6875 14.625 -5 14 C-5 9.83588785 -4.38740919 8.33607747 -2.5 4.75 C-2.0359375 3.85796875 -1.571875 2.9659375 -1.09375 2.046875 C-0.7328125 1.37140625 -0.371875 0.6959375 0 0 Z " fill="#A9A08F" transform="translate(141,321)"/>
<path d="M0 0 C0.33 0.66 0.66 1.32 1 2 C1.99 2 2.98 2 4 2 C4 3.32 4 4.64 4 6 C3.01 6.33 2.02 6.66 1 7 C1 9.97 1 12.94 1 16 C-3 17 -3 17 -5 16 C-5.22828637 13.97803499 -5.4534839 11.95551031 -5.64453125 9.9296875 C-6.09444468 7.48730031 -7.20289044 6.63373596 -9 5 C-8.6875 2.8125 -8.6875 2.8125 -8 1 C-5.36 0.67 -2.72 0.34 0 0 Z " fill="#C2BBB0" transform="translate(169,319)"/>
<path d="M0 0 C4.16138263 -0.08159574 7.9472484 0.01751476 12 1 C12 2.32 12 3.64 12 5 C11.01 5.33 10.02 5.66 9 6 C8.67 8.97 8.34 11.94 8 15 C6.68 15.33 5.36 15.66 4 16 C3 15 3 15 2.90234375 12.71484375 C2.91394531 11.79832031 2.92554688 10.88179688 2.9375 9.9375 C2.94652344 9.01839844 2.95554687 8.09929687 2.96484375 7.15234375 C2.97644531 6.44207031 2.98804688 5.73179687 3 5 C1.68 5 0.36 5 -1 5 C-0.67 3.35 -0.34 1.7 0 0 Z " fill="#E4E1DB" transform="translate(307,320)"/>
<path d="M0 0 C1.9375 0.125 1.9375 0.125 4 1 C5.25 3.5625 5.25 3.5625 6 6 C6.66 5.01 7.32 4.02 8 3 C8.66 3.33 9.32 3.66 10 4 C9.01 6.31 8.02 8.62 7 11 C6.34 11 5.68 11 5 11 C4.67 11.99 4.34 12.98 4 14 C1.9375 15.1875 1.9375 15.1875 0 16 C-2.27529157 10.78021347 -2.13953601 6.46747074 -1 1 C-0.67 0.67 -0.34 0.34 0 0 Z " fill="#D7D1C7" transform="translate(186,320)"/>
<path d="M0 0 C1.32 0 2.64 0 4 0 C4.66 3.3 5.32 6.6 6 10 C7.32 10.33 8.64 10.66 10 11 C10 11.99 10 12.98 10 14 C6.7 14.33 3.4 14.66 0 15 C-1.0024305 9.65370398 -0.84888195 5.37625234 0 0 Z " fill="#CFCBC1" transform="translate(353,321)"/>
<path d="M0 0 C17.82 0 35.64 0 54 0 C54 0.33 54 0.66 54 1 C36.51 1 19.02 1 1 1 C0.67 3.31 0.34 5.62 0 8 C-0.83477268 10.45241507 -1.89559163 12.64713 -3 15 C-3.33 15 -3.66 15 -4 15 C-3.4660563 8.91304181 -2.5773452 6.01380547 0 0 Z " fill="#B3AB99" transform="translate(201,247)"/>
<path d="M0 0 C0.66 0 1.32 0 2 0 C1.67 1.65 1.34 3.3 1 5 C23.275 4.505 23.275 4.505 46 4 C46.33 3.01 46.66 2.02 47 1 C47 1.66 47 2.32 47 3 C47.66 3 48.32 3 49 3 C49 3.99 49 4.98 49 6 C32.5 6 16 6 -1 6 C-0.67 4.02 -0.34 2.04 0 0 Z " fill="#E1DBD5" transform="translate(205,236)"/>
<path d="M0 0 C0.66 0.33 1.32 0.66 2 1 C1 4 1 4 -1.6875 5.625 C-8.33784725 9.84541268 -11.51797405 17.1966054 -13.4765625 24.55859375 C-14.22203528 28.03561233 -14.67215727 31.45929854 -15 35 C-15.33 35 -15.66 35 -16 35 C-16.47191339 26.6366461 -16.32925411 19.39449243 -12 12 C-11.34 11.67 -10.68 11.34 -10 11 C-9.67 10.01 -9.34 9.02 -9 8 C-7.1875 6.46484375 -7.1875 6.46484375 -5 4.9375 C-1.98371816 2.92046147 -1.98371816 2.92046147 0 0 Z " fill="#D7D2C7" transform="translate(342,148)"/>
<path d="M0 0 C0.33 0 0.66 0 1 0 C1 15.84 1 31.68 1 48 C-3.00216342 48.66702724 -6.07251611 49.11551423 -10 49 C-8.9375 47.5 -8.9375 47.5 -7 46 C-4.69 46 -2.38 46 0 46 C0 30.82 0 15.64 0 0 Z " fill="#B2A89A" transform="translate(324,252)"/>
<path d="M0 0 C2.375 0.3125 2.375 0.3125 5 1 C7.00293347 4.00440021 7.49271626 5.70993945 8.125 9.1875 C8.29257813 10.08855469 8.46015625 10.98960937 8.6328125 11.91796875 C8.75398437 12.60503906 8.87515625 13.29210937 9 14 C8.01 14.33 7.02 14.66 6 15 C5.67 14.34 5.34 13.68 5 13 C5.66 13 6.32 13 7 13 C6.01 10.69 5.02 8.38 4 6 C3.67 6.66 3.34 7.32 3 8 C2.01 8 1.02 8 0 8 C-0.33 7.34 -0.66 6.68 -1 6 C-1.66 6.66 -2.32 7.32 -3 8 C-2.37240135 5.07120629 -1.41377341 2.63904371 0 0 Z " fill="#D2CDC3" transform="translate(141,321)"/>
<path d="M0 0 C1.32 0 2.64 0 4 0 C4 1.65 4 3.3 4 5 C4.99 4.67 5.98 4.34 7 4 C7.73323796 1.98491642 7.73323796 1.98491642 8 0 C9.65 0.33 11.3 0.66 13 1 C12.67 2.98 12.34 4.96 12 7 C11.67 7 11.34 7 11 7 C11 5.35 11 3.7 11 2 C10.34 2 9.68 2 9 2 C9 3.32 9 4.64 9 6 C6.69 6 4.38 6 2 6 C1.67 8.64 1.34 11.28 1 14 C1.66 14.33 2.32 14.66 3 15 C2.01 15 1.02 15 0 15 C-1.33257403 4.44191344 -1.33257403 4.44191344 0 0 Z " fill="#C9C4B7" transform="translate(256,321)"/>
<path d="M0 0 C0.66 0 1.32 0 2 0 C1.7525 1.2375 1.505 2.475 1.25 3.75 C0.8054091 7.24690796 0.8054091 7.24690796 2.5625 10.3125 C5.2671448 12.1849464 8.00713648 13.63960749 11 15 C9.8125 16.5 9.8125 16.5 8 18 C5.3125 18.1875 5.3125 18.1875 3 18 C3 17.01 3 16.02 3 15 C2.02246356 13.97803008 1.0194119 12.98020375 0 12 C-1.86418214 9.29693589 -2.02109423 8.21094229 -1.6875 4.875 C-1 2 -1 2 0 0 Z " fill="#CDC7BD" transform="translate(188,281)"/>
<path d="M0 0 C0.33 0.66 0.66 1.32 1 2 C1.99 2 2.98 2 4 2 C4 3.32 4 4.64 4 6 C3.01 6.33 2.02 6.66 1 7 C1 9.97 1 12.94 1 16 C-0.32 16.33 -1.64 16.66 -3 17 C-2.67 13.04 -2.34 9.08 -2 5 C-0.68 5 0.64 5 2 5 C2 4.34 2 3.68 2 3 C-1.3 3 -4.6 3 -8 3 C-8.33 3.66 -8.66 4.32 -9 5 C-8.67 3.68 -8.34 2.36 -8 1 C-5.36 0.67 -2.72 0.34 0 0 Z " fill="#E1DCD6" transform="translate(169,319)"/>
<path d="M0 0 C3.1875 0.3125 3.1875 0.3125 5.5625 1.75 C7.94923366 5.51369538 7.52137931 8.97206893 7.1875 13.3125 C6.5275 13.3125 5.8675 13.3125 5.1875 13.3125 C5.13851563 12.67441406 5.08953125 12.03632813 5.0390625 11.37890625 C4.96429688 10.55261719 4.88953125 9.72632813 4.8125 8.875 C4.74289062 8.05128906 4.67328125 7.22757812 4.6015625 6.37890625 C4.46492188 5.69699219 4.32828125 5.01507813 4.1875 4.3125 C3.5275 3.9825 2.8675 3.6525 2.1875 3.3125 C2.5175 4.6325 2.8475 5.9525 3.1875 7.3125 C2.5275 6.9825 1.8675 6.6525 1.1875 6.3125 C0.5275 6.9725 -0.1325 7.6325 -0.8125 8.3125 C-1.4725 8.3125 -2.1325 8.3125 -2.8125 8.3125 C-0.9375 4.4375 -0.9375 4.4375 0.1875 3.3125 C-1.1325 2.6525 -2.4525 1.9925 -3.8125 1.3125 C-2.8125 0.3125 -2.8125 0.3125 0 0 Z " fill="#DCD7CE" transform="translate(287.8125,319.6875)"/>
<path d="M0 0 C1 4 1 4 0 7 C3.3 7 6.6 7 10 7 C9.67 5.35 9.34 3.7 9 2 C9.99 2 10.98 2 12 2 C12 4.64 12 7.28 12 10 C10.39592672 10.02708567 8.7917215 10.04643483 7.1875 10.0625 C5.84751953 10.07990234 5.84751953 10.07990234 4.48046875 10.09765625 C2 10 2 10 -1 9 C-0.67 6.03 -0.34 3.06 0 0 Z " fill="#D0CAC0" transform="translate(224,221)"/>
<path d="M0 0 C-0.99 0 -1.98 0 -3 0 C-3 0.66 -3 1.32 -3 2 C-1.35 2.33 0.3 2.66 2 3 C2 3.33 2 3.66 2 4 C0.58461283 4.33872513 -0.83237963 4.67074624 -2.25 5 C-3.03890625 5.185625 -3.8278125 5.37125 -4.640625 5.5625 C-7 6 -7 6 -11 6 C-11 4.68 -11 3.36 -11 2 C-3.57142857 -1.57142857 -3.57142857 -1.57142857 0 0 Z " fill="#CAC4B9" transform="translate(193,150)"/>
<path d="M0 0 C0.66 0 1.32 0 2 0 C4.3297964 3.64030688 4.3862557 6.75118727 4 11 C2.5 12.9375 2.5 12.9375 1 14 C0.34 13.67 -0.32 13.34 -1 13 C-0.67 8.71 -0.34 4.42 0 0 Z " fill="#C8C2B8" transform="translate(186,322)"/>
<path d="M0 0 C3.3 0 6.6 0 10 0 C10 0.66 10 1.32 10 2 C9.01 2 8.02 2 7 2 C7.020625 3.0725 7.04125 4.145 7.0625 5.25 C7.0142016 8.14790424 6.86844115 10.28612141 6 13 C5.34 13 4.68 13 4 13 C4 9.37 4 5.74 4 2 C2.68 2 1.36 2 0 2 C0 1.34 0 0.68 0 0 Z " fill="#ABA090" transform="translate(307,322)"/>
<path d="M0 0 C2.74999027 3.22824944 3.10429689 4.52148447 4 9 C-1.94 8.67 -7.88 8.34 -14 8 C-14.66 6.02 -15.32 4.04 -16 2 C-15.34 2 -14.68 2 -14 2 C-14 2.66 -14 3.32 -14 4 C-13.34 4 -12.68 4 -12 4 C-12 4.99 -12 5.98 -12 7 C-7.71 7 -3.42 7 1 7 C0.67 4.69 0.34 2.38 0 0 Z " fill="#B6AFA0" transform="translate(288,292)"/>
<path d="M0 0 C2.96082171 3.47652039 4.5449593 7.35678468 6.1875 11.5625 C6.46013672 12.23474609 6.73277344 12.90699219 7.01367188 13.59960938 C8.18137285 16.54666423 9 18.80156144 9 22 C8.34 22 7.68 22 7 22 C6.67 19.36 6.34 16.72 6 14 C5.34 14 4.68 14 4 14 C3.32471777 12.42032193 2.66010306 10.83608097 2 9.25 C1.62875 8.36828125 1.2575 7.4865625 0.875 6.578125 C0 4 0 4 0 0 Z " fill="#CFC8BE" transform="translate(244,176)"/>
<path d="M0 0 C1.37432457 3.81756824 0.67975039 7.07255329 0 11 C-1.98 11 -3.96 11 -6 11 C-6 10.01 -6 9.02 -6 8 C-4.35 8 -2.7 8 -1 8 C-1 7.34 -1 6.68 -1 6 C-2.65 6 -4.3 6 -6 6 C-6 5.01 -6 4.02 -6 3 C-4.02 3 -2.04 3 0 3 C0 2.01 0 1.02 0 0 Z " fill="#E5E2DC" transform="translate(340,321)"/>
<path d="M0 0 C0.99 0.33 1.98 0.66 3 1 C3.02688151 2.64574566 3.04634123 4.29161413 3.0625 5.9375 C3.07410156 6.85402344 3.08570313 7.77054687 3.09765625 8.71484375 C3 11 3 11 2 12 C0.00041636 12.04080783 -2.00045254 12.04254356 -4 12 C-3.67 11.01 -3.34 10.02 -3 9 C-1.68 9 -0.36 9 1 9 C0.67 6.03 0.34 3.06 0 0 Z " fill="#ADA393" transform="translate(290,323)"/>
<path d="M0 0 C6.51674925 -0.70834231 11.62322243 1.26476147 17 5 C18.29296875 7.171875 18.29296875 7.171875 19 9 C18.21496094 8.57847656 17.42992187 8.15695313 16.62109375 7.72265625 C8.6891284 3.55237113 8.6891284 3.55237113 0 2 C0 1.34 0 0.68 0 0 Z " fill="#D7D0C7" transform="translate(199,152)"/>
<path d="M0 0 C0.33 0 0.66 0 1 0 C1.27098599 6.09718475 0.65155878 12.10740139 -1 18 C-1.66 18.33 -2.32 18.66 -3 19 C-3.38614349 12.1781317 -2.00865708 6.50422293 0 0 Z " fill="#C2BBB0" transform="translate(315,166)"/>
<path d="M0 0 C3.35019791 5.02529687 6.80384842 10.77017473 6 17 C3.6776572 14.1237651 2.13434158 11.36219578 0.75 7.9375 C0.39421875 7.08027344 0.0384375 6.22304688 -0.328125 5.33984375 C-1 3 -1 3 0 0 Z " fill="#C4BCB1" transform="translate(266,277)"/>
<path d="M0 0 C0.66 0 1.32 0 2 0 C2.36237263 1.62318979 2.71465157 3.2486358 3.0625 4.875 C3.25972656 5.77992188 3.45695312 6.68484375 3.66015625 7.6171875 C4 10 4 10 3 12 C2.01 12 1.02 12 0 12 C0 8.04 0 4.08 0 0 Z " fill="#B1A899" transform="translate(265,323)"/>
<path d="M0 0 C0.99 0 1.98 0 3 0 C3.08086147 1.79093191 3.13912702 3.58289628 3.1875 5.375 C3.22230469 6.37273437 3.25710938 7.37046875 3.29296875 8.3984375 C3.19628906 9.25695312 3.09960938 10.11546875 3 11 C2.01 11.66 1.02 12.32 0 13 C0 8.71 0 4.42 0 0 Z " fill="#AFA696" transform="translate(354,322)"/>
<path d="M0 0 C0.33 0 0.66 0 1 0 C1.23228738 4.7618912 0.33407626 8.44844571 -1 13 C-1.4260669 15.66408866 -1.71738863 18.31519203 -2 21 C-2.33 21 -2.66 21 -3 21 C-3.31806054 13.2723068 -3.32270836 7.06075526 0 0 Z " fill="#CDC8BD" transform="translate(329,162)"/>
<path d="M0 0 C0.66 0.66 1.32 1.32 2 2 C5.58343976 2.16677282 5.58343976 2.16677282 9 2 C7.70256222 4.59487555 6.70637529 5.02269781 4 6 C1.25 5.625 1.25 5.625 -1 5 C-1 1 -1 1 0 0 Z " fill="#E1DDD7" transform="translate(137,330)"/>
<path d="M0 0 C0.33 0.99 0.66 1.98 1 3 C3.31 3 5.62 3 8 3 C8 3.99 8 4.98 8 6 C5.03 6 2.06 6 -1 6 C-0.67 4.02 -0.34 2.04 0 0 Z " fill="#ABA493" transform="translate(333,329)"/>
<path d="M0 0 C0.99 0 1.98 0 3 0 C3 2.31 3 4.62 3 7 C2.01 7 1.02 7 0 7 C-0.33 6.34 -0.66 5.68 -1 5 C-1.66 5.66 -2.32 6.32 -3 7 C-2.38722388 4.03824877 -1.74627478 2.61941217 0 0 Z " fill="#C6BEB2" transform="translate(141,322)"/>
<path d="M0 0 C4.455 0.99 4.455 0.99 9 2 C9 2.99 9 3.98 9 5 C6 6 6 6 2 6 C2 5.01 2 4.02 2 3 C1.34 2.67 0.68 2.34 0 2 C0 1.34 0 0.68 0 0 Z " fill="#BDB5AA" transform="translate(189,293)"/>
<path d="M0 0 C0.66 0 1.32 0 2 0 C2.50615298 1.26839526 3.00469099 2.53983102 3.5 3.8125 C3.91765625 4.87404297 3.91765625 4.87404297 4.34375 5.95703125 C5 8 5 8 5 11 C4.34 11 3.68 11 3 11 C2.34 9.02 1.68 7.04 1 5 C0.01 5 -0.98 5 -2 5 C-1.34 3.35 -0.68 1.7 0 0 Z " fill="#D0C9C1" transform="translate(229,211)"/>
<path d="M0 0 C1.65 0.33 3.3 0.66 5 1 C4.67 2.98 4.34 4.96 4 7 C3.67 7 3.34 7 3 7 C3 5.35 3 3.7 3 2 C2.34 2 1.68 2 1 2 C1 3.32 1 4.64 1 6 C-0.65 6 -2.3 6 -4 6 C-3.01 5.34 -2.02 4.68 -1 4 C-0.27617533 1.94074861 -0.27617533 1.94074861 0 0 Z " fill="#D4CFC7" transform="translate(264,321)"/>
<path d="M0 0 C0.33 0.66 0.66 1.32 1 2 C1.66 2 2.32 2 3 2 C3 3.98 3 5.96 3 8 C3.66 8 4.32 8 5 8 C5.625 9.8125 5.625 9.8125 6 12 C5.01 13.485 5.01 13.485 4 15 C3.32779649 13.06441401 2.66241923 11.12645628 2 9.1875 C1.62875 8.10855469 1.2575 7.02960938 0.875 5.91796875 C0 3 0 3 0 0 Z " fill="#CDC6BB" transform="translate(244,216)"/>
<path d="M0 0 C2.39763185 2.39763185 2.34280586 3.33273498 2.625 6.625 C2.69976562 7.44226563 2.77453125 8.25953125 2.8515625 9.1015625 C2.90054688 9.72804688 2.94953125 10.35453125 3 11 C1.68 11.33 0.36 11.66 -1 12 C-0.67 8.04 -0.34 4.08 0 0 Z " fill="#D3CFC7" transform="translate(167,324)"/>
<path d="M0 0 C0.66 0 1.32 0 2 0 C1.67 1.65 1.34 3.3 1 5 C4.96 5 8.92 5 13 5 C13 5.33 13 5.66 13 6 C8.38 6 3.76 6 -1 6 C-0.67 4.02 -0.34 2.04 0 0 Z " fill="#DAD3CC" transform="translate(205,236)"/>
<path d="M0 0 C0.66 0 1.32 0 2 0 C1.40895235 4.84659077 0.02055843 8.60748167 -2 13 C-2.33 13 -2.66 13 -3 13 C-2.52060632 8.28596212 -2.03165952 4.33420699 0 0 Z " fill="#CFC9BE" transform="translate(212,218)"/>
<path d="M0 0 C0.66 0 1.32 0 2 0 C3.0625 1.8125 3.0625 1.8125 4 4 C3.67 4.99 3.34 5.98 3 7 C2.34 6.67 1.68 6.34 1 6 C1 7.65 1 9.3 1 11 C0.67 11 0.34 11 0 11 C0 7.37 0 3.74 0 0 Z " fill="#A89E8C" transform="translate(186,322)"/>
<path d="M0 0 C3.01111938 4.51667907 3.10067926 7.6639991 3 13 C1.12396022 10.18594033 0.50907198 8.59075334 -0.1875 5.375 C-0.36667969 4.57835937 -0.54585938 3.78171875 -0.73046875 2.9609375 C-0.81941406 2.31382812 -0.90835937 1.66671875 -1 1 C-0.67 0.67 -0.34 0.34 0 0 Z " fill="#C8BFB4" transform="translate(262,265)"/>
<path d="M0 0 C0.66 0.33 1.32 0.66 2 1 C1.54965877 2.62723299 1.08944646 4.25173664 0.625 5.875 C0.36976563 6.77992188 0.11453125 7.68484375 -0.1484375 8.6171875 C-1 11 -1 11 -3 13 C-2.52060632 8.28596212 -2.03165952 4.33420699 0 0 Z " fill="#CDC5BA" transform="translate(200,249)"/>
<path d="M0 0 C2.50298434 2.93828597 3.46930939 5.17902761 4 9 C2.35 9 0.7 9 -1 9 C-1 8.34 -1 7.68 -1 7 C-0.34 7 0.32 7 1 7 C0.67 4.69 0.34 2.38 0 0 Z " fill="#D4CFC7" transform="translate(288,292)"/>
<path d="M0 0 C0.66 0 1.32 0 2 0 C1.54965877 1.62723299 1.08944646 3.25173664 0.625 4.875 C0.36976563 5.77992188 0.11453125 6.68484375 -0.1484375 7.6171875 C-1 10 -1 10 -3 12 C-2.14285714 3.42857143 -2.14285714 3.42857143 0 0 Z " fill="#D0C9BF" transform="translate(195,263)"/>
<path d="M0 0 C1.98 0 3.96 0 6 0 C6.33 0.99 6.66 1.98 7 3 C2.545 3.495 2.545 3.495 -2 4 C-1.34 2.68 -0.68 1.36 0 0 Z " fill="#EAE7E4" transform="translate(216,332)"/>
<path d="M0 0 C-2.38457948 1.58971965 -4.6304124 2.86741593 -7.1875 4.125 C-7.90292969 4.47820312 -8.61835938 4.83140625 -9.35546875 5.1953125 C-9.89816406 5.46085938 -10.44085938 5.72640625 -11 6 C-11.66 5.34 -12.32 4.68 -13 4 C-4.738041 -0.59225513 -4.738041 -0.59225513 0 0 Z " fill="#DBD5CE" transform="translate(342,147)"/>
<path d="M0 0 C0.66 0 1.32 0 2 0 C1.44894091 3.9492568 0.61064629 7.34920174 -1 11 C-1.33 11 -1.66 11 -2 11 C-2.19622241 6.78121808 -1.80230168 3.82989106 0 0 Z " fill="#CDC7BC" transform="translate(226,182)"/>
<path d="M0 0 C0.33 0 0.66 0 1 0 C1.125 6.75 1.125 6.75 0 9 C-0.99 9 -1.98 9 -3 9 C-2.01 6.03 -1.02 3.06 0 0 Z " fill="#CBC4BA" transform="translate(177,277)"/>
<path d="M0 0 C2.97903734 2.97903734 4 5.80285329 4 10 C3.34 10 2.68 10 2 10 C0.39644899 6.49223216 -0.22036864 3.85645121 0 0 Z " fill="#CCC5BC" transform="translate(276,264)"/>
<path d="M0 0 C1.9453125 -0.29296875 1.9453125 -0.29296875 4.125 -0.1875 C5.40375 -0.125625 6.6825 -0.06375 8 0 C7.67 0.99 7.34 1.98 7 3 C4.03 3 1.06 3 -2 3 C-1.34 2.01 -0.68 1.02 0 0 Z " fill="#C5BFB4" transform="translate(316,298)"/>
<path d="M0 0 C4 6 4 6 4 10 C3.34 10 2.68 10 2 10 C0.39644899 6.49223216 -0.22036864 3.85645121 0 0 Z " fill="#CBC6BC" transform="translate(280,274)"/>
<path d="M0 0 C0.33 0.66 0.66 1.32 1 2 C0.06553465 4.03144641 -0.93224776 6.03533587 -2 8 C-2.66 8 -3.32 8 -4 8 C-4 6.68 -4 5.36 -4 4 C-3.34 4 -2.68 4 -2 4 C-1.34 2.68 -0.68 1.36 0 0 Z " fill="#A89F8F" transform="translate(195,327)"/>
<path d="M0 0 C0 3.51716303 -0.82445585 4.37121748 -3 7 C-4.32 6.67 -5.64 6.34 -7 6 C-4.69 4.02 -2.38 2.04 0 0 Z " fill="#DCD9D1" transform="translate(173,286)"/>
<path d="M0 0 C0.99 0.33 1.98 0.66 3 1 C3 2.65 3 4.3 3 6 C2.67 5.34 2.34 4.68 2 4 C1.34 4 0.68 4 0 4 C-0.33 4.66 -0.66 5.32 -1 6 C-1.042721 4.33388095 -1.04063832 2.66617115 -1 1 C-0.67 0.67 -0.34 0.34 0 0 Z " fill="#CFC6BD" transform="translate(229,176)"/>
</svg>
